{
  "accessors": [
    {
      "bufferView": 2,
      "componentType": 5126,
      "count": 68,
      "max": [
        0.799583911895752,
        0.7810331583023071,
        0.17328563332557678
      ],
      "min": [
        -1.392561435699463,
        -1.4111123085021973,
        -0.019195489585399628
      ],
      "type": "VEC3"
    },
    {
      "bufferView": 2,
      "byteOffset": 816,
      "componentType": 5126,
      "count": 68,
      "max": [
        1.0,
        1.0,
        1.0
      ],
      "min": [
        -1.0,
        -1.0,
        -1.0
      ],
      "type": "VEC3"
    },
    {
      "bufferView": 1,
      "componentType": 5126,
      "count": 68,
      "max": [
        1.0,
        1.0
      ],
      "min": [
        0.0,
        0.0
      ],
      "type": "VEC2"
    },
    {
      "bufferView": 0,
      "componentType": 5125,
      "count": 180,
      "type": "SCALAR"
    },
    {
      "bufferView": 2,
      "byteOffset": 1632,
      "componentType": 5126,
      "count": 186,
      "max": [
        -2.0492987632751465,
        1.0419923067092896,
        1.033368468284607
      ],
      "min": [
        -5.489353656768799,
        -0.9580097794532776,
        -1.4625440835952759
      ],
      "type": "VEC3"
    },
    {
      "bufferView": 2,
      "byteOffset": 3864,
      "componentType": 5126,
      "count": 186,
      "max": [
        1.0,
        0.9999812841415405,
        0.012008421123027802
      ],
      "min": [
        -1.0,
        -0.9999812841415405,
        -1.521037802376668e-07
      ],
      "type": "VEC3"
    },
    {
      "bufferView": 1,
      "byteOffset": 544,
      "componentType": 5126,
      "count": 186,
      "max": [
        1.0024055242538452,
        1.000779151916504
      ],
      "min": [
        -0.0024056467227637768,
        -0.002860724925994873
      ],
      "type": "VEC2"
    },
    {
      "bufferView": 0,
      "byteOffset": 720,
      "componentType": 5125,
      "count": 402,
      "type": "SCALAR"
    },
    {
      "bufferView": 2,
      "byteOffset": 6096,
      "componentType": 5126,
      "count": 1386,
      "max": [
        0.10024301707744598,
        1.3162168264389038,
        1.395687222480774
      ],
      "min": [
        -5.489353656768799,
        -1.233848214149475,
        -1.4625440835952759
      ],
      "type": "VEC3"
    },
    {
      "bufferView": 2,
      "byteOffset": 22728,
      "componentType": 5126,
      "count": 1386,
      "max": [
        1.0,
        1.0,
        1.0
      ],
      "min": [
        -1.0,
        -1.0,
        -1.0
      ],
      "type": "VEC3"
    },
    {
      "bufferView": 1,
      "byteOffset": 2032,
      "componentType": 5126,
      "count": 1386,
      "max": [
        1.589677095413208,
        1.492522954940796
      ],
      "min": [
        -0.589677095413208,
        -0.4925230145454407
      ],
      "type": "VEC2"
    },
    {
      "bufferView": 0,
      "byteOffset": 2328,
      "componentType": 5125,
      "count": 3690,
      "type": "SCALAR"
    },
    {
      "bufferView": 2,
      "byteOffset": 39360,
      "componentType": 5126,
      "count": 54,
      "max": [
        0.10024301707744598,
        0.5475330948829651,
        0.14448121190071106
      ],
      "min": [
        -1.1992335319519043,
        -0.46355050802230835,
        -0.06186530739068985
      ],
      "type": "VEC3"
    },
    {
      "bufferView": 2,
      "byteOffset": 40008,
      "componentType": 5126,
      "count": 54,
      "max": [
        0.0448039285838604,
        1.0,
        0.9999717473983765
      ],
      "min": [
        -0.0448039248585701,
        -1.0,
        -0.9999889135360718
      ],
      "type": "VEC3"
    },
    {
      "bufferView": 1,
      "byteOffset": 13120,
      "componentType": 5126,
      "count": 54,
      "max": [
        0.9903990626335144,
        0.8890349864959717
      ],
      "min": [
        0.008001089096069336,
        0.11096510291099548
      ],
      "type": "VEC2"
    },
    {
      "bufferView": 0,
      "byteOffset": 17088,
      "componentType": 5125,
      "count": 168,
      "type": "SCALAR"
    },
    {
      "bufferView": 2,
      "byteOffset": 40656,
      "componentType": 5126,
      "count": 272,
      "max": [
        -1.9669722318649292,
        1.1243185997009277,
        1.2759779691696167
      ],
      "min": [
        -5.4862236976623535,
        -1.04033625125885,
        -1.4211585521697998
      ],
      "type": "VEC3"
    },
    {
      "bufferView": 2,
      "byteOffset": 43920,
      "componentType": 5126,
      "count": 272,
      "max": [
        1.0,
        1.0,
        1.0
      ],
      "min": [
        -1.0,
        -1.0,
        -1.0
      ],
      "type": "VEC3"
    },
    {
      "bufferView": 1,
      "byteOffset": 13552,
      "componentType": 5126,
      "count": 272,
      "max": [
        0.49000000953674316,
        0.49000000953674316
      ],
      "min": [
        0.01000000536441803,
        0.01000000536441803
      ],
      "type": "VEC2"
    },
    {
      "bufferView": 0,
      "byteOffset": 17760,
      "componentType": 5125,
      "count": 786,
      "type": "SCALAR"
    },
    {
      "bufferView": 2,
      "byteOffset": 47184,
      "componentType": 5126,
      "count": 18,
      "max": [
        -1.6888288259506226,
        1.3123455047607422,
        -1.2188972234725952
      ],
      "min": [
        -4.229537010192871,
        -1.228363037109375,
        -1.5871155261993408
      ],
      "type": "VEC3"
    },
    {
      "bufferView": 2,
      "byteOffset": 47400,
      "componentType": 5126,
      "count": 18,
      "max": [
        0.1434289515018463,
        1.0,
        1.0
      ],
      "min": [
        -1.0,
        -1.0,
        -0.9896606206893921
      ],
      "type": "VEC3"
    },
    {
      "bufferView": 1,
      "byteOffset": 15728,
      "componentType": 5126,
      "count": 18,
      "max": [
        0.875,
        1.0
      ],
      "min": [
        0.375,
        0.25
      ],
      "type": "VEC2"
    },
    {
      "bufferView": 0,
      "byteOffset": 20904,
      "componentType": 5125,
      "count": 24,
      "type": "SCALAR"
    },
    {
      "bufferView": 2,
      "byteOffset": 47616,
      "componentType": 5126,
      "count": 207,
      "max": [
        19.26852035522461,
        21.752758026123047,
        0.8999868631362915
      ],
      "min": [
        -9.523040771484375,
        -7.835616588592529,
        -1.0367448329925537
      ],
      "type": "VEC3"
    },
    {
      "bufferView": 2,
      "byteOffset": 50100,
      "componentType": 5126,
      "count": 207,
      "max": [
        0.8960431814193726,
        0.8839486837387085,
        0.9999219179153442
      ],
      "min": [
        -0.5829821228981018,
        -0.8839483857154846,
        -0.9999924898147583
      ],
      "type": "VEC3"
    },
    {
      "bufferView": 1,
      "byteOffset": 15872,
      "componentType": 5126,
      "count": 207,
      "max": [
        1.0,
        1.0
      ],
      "min": [
        0.0,
        0.0
      ],
      "type": "VEC2"
    },
    {
      "bufferView": 0,
      "byteOffset": 21000,
      "componentType": 5125,
      "count": 486,
      "type": "SCALAR"
    },
    {
      "bufferView": 2,
      "byteOffset": 52584,
      "componentType": 5126,
      "count": 454,
      "max": [
        22.000225067138672,
        24.792770385742188,
        0.8865560293197632
      ],
      "min": [
        -11.3201322555542,
        -8.605128288269043,
        -1.1704354286193848
      ],
      "type": "VEC3"
    },
    {
      "bufferView": 2,
      "byteOffset": 58032,
      "componentType": 5126,
      "count": 454,
      "max": [
        0.3960096538066864,
        0.8839500546455383,
        0.9999977350234985
      ],
      "min": [
        -0.7662628889083862,
        -0.9393900632858276,
        -0.9999924898147583
      ],
      "type": "VEC3"
    },
    {
      "bufferView": 1,
      "byteOffset": 17528,
      "componentType": 5126,
      "count": 454,
      "max": [
        0.8331764340400696,
        1.0
      ],
      "min": [
        0.16682356595993042,
        5.960464477539063e-08
      ],
      "type": "VEC2"
    },
    {
      "bufferView": 0,
      "byteOffset": 22944,
      "componentType": 5125,
      "count": 1440,
      "type": "SCALAR"
    },
    {
      "bufferView": 2,
      "byteOffset": 63480,
      "componentType": 5126,
      "count": 334,
      "max": [
        1.699187994003296,
        1.2491905689239502,
        6.863816738128662
      ],
      "min": [
        0.3770308494567871,
        -1.5763169527053833,
        -4.705320358276367
      ],
      "type": "VEC3"
    },
    {
      "bufferView": 2,
      "byteOffset": 67488,
      "componentType": 5126,
      "count": 334,
      "max": [
        0.9928852319717407,
        0.9932416677474976,
        0.595678985118866
      ],
      "min": [
        -0.9926389455795288,
        -0.9932420253753662,
        -0.595686137676239
      ],
      "type": "VEC3"
    },
    {
      "bufferView": 1,
      "byteOffset": 21160,
      "componentType": 5126,
      "count": 334,
      "max": [
        0.9247504472732544,
        0.9855180382728577
      ],
      "min": [
        0.024473771452903748,
        0.013646155595779419
      ],
      "type": "VEC2"
    },
    {
      "bufferView": 0,
      "byteOffset": 28704,
      "componentType": 5125,
      "count": 1164,
      "type": "SCALAR"
    },
    {
      "bufferView": 2,
      "byteOffset": 71496,
      "componentType": 5126,
      "count": 318,
      "max": [
        1.7085944414138794,
        1.2491905689239502,
        7.026215553283691
      ],
      "min": [
        0.3770308494567871,
        -1.632475733757019,
        -4.705320358276367
      ],
      "type": "VEC3"
    },
    {
      "bufferView": 2,
      "byteOffset": 75312,
      "componentType": 5126,
      "count": 318,
      "max": [
        0.9928852319717407,
        0.993241548538208,
        0.6585622429847717
      ],
      "min": [
        -0.6938399076461792,
        -0.9932414293289185,
        -0.658561646938324
      ],
      "type": "VEC3"
    },
    {
      "bufferView": 1,
      "byteOffset": 23832,
      "componentType": 5126,
      "count": 318,
      "max": [
        0.9722222089767456,
        1.0
      ],
      "min": [
        0.027777446433901787,
        0.0
      ],
      "type": "VEC2"
    },
    {
      "bufferView": 0,
      "byteOffset": 33360,
      "componentType": 5125,
      "count": 768,
      "type": "SCALAR"
    }
  ],
  "asset": {
    "extras": {
      "author": "Kroko.blend (https://sketchfab.com/jaromir.ternavskiy)",
      "license": "CC-BY-4.0 (http://creativecommons.org/licenses/by/4.0/)",
      "source": "https://sketchfab.com/3d-models/telescope-4aaf0f164c604df88a0181b13d7cf946",
      "title": "Telescope"
    },
    "generator": "Sketchfab-16.74.0",
    "version": "2.0"
  },
  "bufferViews": [
    {
      "buffer": 0,
      "byteLength": 36432,
      "name": "floatBufferViews",
      "target": 34963
    },
    {
      "buffer": 0,
      "byteLength": 26376,
      "byteOffset": 36432,
      "byteStride": 8,
      "name": "floatBufferViews",
      "target": 34962
    },
    {
      "buffer": 0,
      "byteLength": 79128,
      "byteOffset": 62808,
      "byteStride": 12,
      "name": "floatBufferViews",
      "target": 34962
    }
  ],
  "buffers": [
    {
      "byteLength": 141936,
      "uri": "scene.bin"
    }
  ],
  "extensionsUsed": [
    "KHR_materials_clearcoat",
    "KHR_materials_specular"
  ],
  "images": [
    {
      "uri": "textures/Material_baseColor.jpeg"
    },
    {
      "uri": "textures/Material.002_baseColor.jpeg"
    },
    {
      "uri": "textures/Material.004_baseColor.jpeg"
    },
    {
      "uri": "textures/Material.003_baseColor.jpeg"
    },
    {
      "uri": "textures/Material.001_baseColor.jpeg"
    },
    {
      "uri": "textures/Material.005_baseColor.jpeg"
    }
  ],
  "materials": [
    {
      "doubleSided": true,
      "name": "Material",
      "pbrMetallicRoughness": {
        "baseColorTexture": {
          "index": 0
        },
        "metallicFactor": 0.0,
        "roughnessFactor": 0.550474820494691
      }
    },
    {
      "doubleSided": true,
      "name": "Material.002",
      "pbrMetallicRoughness": {
        "baseColorTexture": {
          "index": 1
        },
        "metallicFactor": 0.0,
        "roughnessFactor": 0.1725689068766686
      }
    },
    {
      "doubleSided": true,
      "name": "Material.004",
      "pbrMetallicRoughness": {
        "baseColorTexture": {
          "index": 2
        },
        "metallicFactor": 0.0,
        "roughnessFactor": 0.8211145618000169
      }
    },
    {
      "alphaMode": "BLEND",
      "doubleSided": true,
      "extensions": {
        "KHR_materials_clearcoat": {
          "clearcoatFactor": 1.0,
          "clearcoatRoughnessFactor": 0.7360022430544549
        },
        "KHR_materials_specular": {
          "specularColorFactor": [
            1.0,
            1.0,
            1.0
          ],
          "specularFactor": 0.9005741731784325
        }
      },
      "name": "Material.003",
      "pbrMetallicRoughness": {
        "baseColorFactor": [
          1.0,
          1.0,
          1.0,
          0.8700978898221403
        ],
        "baseColorTexture": {
          "index": 3
        },
        "roughnessFactor": 0.0
      }
    },
    {
      "doubleSided": true,
      "name": "Material.001",
      "pbrMetallicRoughness": {
        "baseColorTexture": {
          "index": 4
        },
        "metallicFactor": 0.4556204361765674,
        "roughnessFactor": 0.5626653338372078
      }
    },
    {
      "doubleSided": true,
      "name": "Material.005",
      "pbrMetallicRoughness": {
        "baseColorTexture": {
          "index": 5
        },
        "roughnessFactor": 0.6479989272348259
      }
    }
  ],
  "meshes": [
    {
      "name": "Circle.001_Material_0",
      "primitives": [
        {
          "attributes": {
            "NORMAL": 1,
            "POSITION": 0,
            "TEXCOORD_0": 2
          },
          "indices": 3,
          "material": 0,
          "mode": 4
        }
      ]
    },
    {
      "name": "Cylinder_Material.002_0",
      "primitives": [
        {
          "attributes": {
            "NORMAL": 5,
            "POSITION": 4,
            "TEXCOORD_0": 6
          },
          "indices": 7,
          "material": 1,
          "mode": 4
        }
      ]
    },
    {
      "name": "Cylinder_Material_0",
      "primitives": [
        {
          "attributes": {
            "NORMAL": 9,
            "POSITION": 8,
            "TEXCOORD_0": 10
          },
          "indices": 11,
          "material": 0,
          "mode": 4
        }
      ]
    },
    {
      "name": "Cylinder_Material.004_0",
      "primitives": [
        {
          "attributes": {
            "NORMAL": 13,
            "POSITION": 12,
            "TEXCOORD_0": 14
          },
          "indices": 15,
          "material": 2,
          "mode": 4
        }
      ]
    },
    {
      "name": "Cylinder_Material.003_0",
      "primitives": [
        {
          "attributes": {
            "NORMAL": 17,
            "POSITION": 16,
            "TEXCOORD_0": 18
          },
          "indices": 19,
          "material": 3,
          "mode": 4
        }
      ]
    },
    {
      "name": "Cylinder_Material.001_0",
      "primitives": [
        {
          "attributes": {
            "NORMAL": 21,
            "POSITION": 20,
            "TEXCOORD_0": 22
          },
          "indices": 23,
          "material": 4,
          "mode": 4
        }
      ]
    },
    {
      "name": "Cylinder.003_Material_0",
      "primitives": [
        {
          "attributes": {
            "NORMAL": 25,
            "POSITION": 24,
            "TEXCOORD_0": 26
          },
          "indices": 27,
          "material": 0,
          "mode": 4
        }
      ]
    },
    {
      "name": "Cylinder.003_Material.001_0",
      "primitives": [
        {
          "attributes": {
            "NORMAL": 29,
            "POSITION": 28,
            "TEXCOORD_0": 30
          },
          "indices": 31,
          "material": 4,
          "mode": 4
        }
      ]
    },
    {
      "name": "Cylinder.005_Material.001_0",
      "primitives": [
        {
          "attributes": {
            "NORMAL": 33,
            "POSITION": 32,
            "TEXCOORD_0": 34
          },
          "indices": 35,
          "material": 4,
          "mode": 4
        }
      ]
    },
    {
      "name": "Cylinder.005_Material.005_0",
      "primitives": [
        {
          "attributes": {
            "NORMAL": 37,
            "POSITION": 36,
            "TEXCOORD_0": 38
          },
          "indices": 39,
          "material": 5,
          "mode": 4
        }
      ]
    }
  ],
  "nodes": [
    {
      "children": [
        1
      ],
      "matrix": [
        1.0,
        0.0,
        0.0,
        0.0,
        0.0,
        2.220446049250313e-16,
        -1.0,
        0.0,
        0.0,
        1.0,
        2.220446049250313e-16,
        0.0,
        0.0,
        0.0,
        0.0,
        1.0
      ],
      "name": "Sketchfab_model"
    },
    {
      "children": [
        2
      ],
      "matrix": [
        0.009999999776482582,
        0.0,
        0.0,
        0.0,
        0.0,
        0.0,
        0.009999999776482582,
        0.0,
        0.0,
        -0.009999999776482582,
        0.0,
        0.0,
        0.0,
        0.0,
        0.0,
        1.0
      ],
      "name": "40d32b3ac6ee4572953cc26740d1597d.fbx"
    },
    {
      "children": [
        3,
        5,
        11,
        14
      ],
      "name": "RootNode"
    },
    {
      "children": [
        4
      ],
      "matrix": [
        120.54990690909752,
        -1.8777869677663936e-06,
        -43.876572403570854,
        0.0,
        -43.87657240357059,
        -2.021707010009546e-05,
        -120.54990690909592,
        0.0,
        -5.367094549307478e-06,
        133.69171142577957,
        -2.0467581068291376e-05,
        0.0,
        27.782773971557617,
        708.5413208007813,
        -81.08903503417969,
        1.0
      ],
      "name": "Circle.001"
    },
    {
      "mesh": 0,
      "name": "Circle.001_Material_0"
    },
    {
      "children": [
        6,
        7,
        8,
        9,
        10
      ],
      "matrix": [
        20.30618139877118,
        -115.16213031770243,
        -6.3360825560707425e-06,
        0.0,
        7.594250275856765e-06,
        7.772897359637098e-06,
        -116.93869018554636,
        0.0,
        794.6186901759619,
        140.1126500617218,
        6.091751537470598e-05,
        0.0,
        -21.730300903320313,
        718.9207153320313,
        -22.73321533203125,
        1.0
      ],
      "name": "Cylinder"
    },
    {
      "mesh": 1,
      "name": "Cylinder_Material.002_0"
    },
    {
      "mesh": 2,
      "name": "Cylinder_Material_0"
    },
    {
      "mesh": 3,
      "name": "Cylinder_Material.004_0"
    },
    {
      "mesh": 4,
      "name": "Cylinder_Material.003_0"
    },
    {
      "mesh": 5,
      "name": "Cylinder_Material.001_0"
    },
    {
      "children": [
        12,
        13
      ],
      "matrix": [
        -12.048980955768483,
        -2.8132392870272325,
        25.281308620737757,
        0.0,
        24.956693157593055,
        -6.719783931277415,
        11.146510042120154,
        0.0,
        128.04064170000007,
        707.313211349559,
        139.73171329081936,
        0.0,
        9.895526885986328,
        47.91960906982422,
        -16.79098129272461,
        1.0
      ],
      "name": "Cylinder.003"
    },
    {
      "mesh": 6,
      "name": "Cylinder.003_Material_0"
    },
    {
      "mesh": 7,
      "name": "Cylinder.003_Material.001_0"
    },
    {
      "children": [
        15,
        16
      ],
      "matrix": [
        -17.067419267828154,
        11.627602481776954,
        63.69641630432146,
        -0.0,
        3.0094353365900983,
        65.94339422115519,
        -11.231405488116344,
        -0.0,
        15.551854873824325,
        3.0895506045214644e-06,
        4.1671102865782785,
        -0.0,
        -71.93756866455078,
        895.4039306640625,
        53.361236572265625,
        1.0
      ],
      "name": "Cylinder.005"
    },
    {
      "mesh": 8,
      "name": "Cylinder.005_Material.001_0"
    },
    {
      "mesh": 9,
      "name": "Cylinder.005_Material.005_0"
    }
  ],
  "samplers": [
    {
      "magFilter": 9729,
      "minFilter": 9987,
      "wrapS": 10497,
      "wrapT": 10497
    }
  ],
  "scene": 0,
  "scenes": [
    {
      "name": "Sketchfab_Scene",
      "nodes": [
        0
      ]
    }
  ],
  "textures": [
    {
      "sampler": 0,
      "source": 0
    },
    {
      "sampler": 0,
      "source": 1
    },
    {
      "sampler": 0,
      "source": 2
    },
    {
      "sampler": 0,
      "source": 3
    },
    {
      "sampler": 0,
      "source": 4
    },
    {
      "sampler": 0,
      "source": 5
    }
  ]
}
